<svg xmlns="http://www.w3.org/2000/svg" width="64" height="64">
    <path style="stroke:none;fill-rule:nonzero;fill:#000;fill-opacity:1" d="M32 0c-8.684 0-9.777.04-13.188.191-3.414.16-5.738.696-7.773 1.489A15.703 15.703 0 0 0 5.371 5.37 15.788 15.788 0 0 0 1.68 11.04C.887 13.07.348 15.4.19 18.801.04 22.219 0 23.309 0 32.004 0 40.69.04 41.78.191 45.19c.16 3.41.696 5.735 1.489 7.77.82 2.102 1.914 3.887 3.691 5.668 1.777 1.777 3.563 2.875 5.664 3.691 2.04.793 4.36 1.332 7.77 1.489C22.219 63.96 23.309 64 32 64s9.777-.04 13.191-.191c3.407-.16 5.739-.696 7.774-1.489a15.688 15.688 0 0 0 5.664-3.691c1.777-1.781 2.871-3.566 3.691-5.668.79-2.035 1.328-4.36 1.489-7.77.152-3.41.191-4.5.191-13.191s-.04-9.781-.191-13.195c-.16-3.407-.7-5.735-1.489-7.766a15.755 15.755 0 0 0-3.691-5.668A15.67 15.67 0 0 0 52.96 1.68C50.92.887 48.594.348 45.188.19 41.773.04 40.688 0 31.992 0h.012Zm-2.867 5.77h2.87c8.544 0 9.556.027 12.93.183 3.118.14 4.813.664 5.942 1.098 1.492.582 2.563 1.277 3.68 2.398 1.12 1.117 1.812 2.184 2.394 3.68.438 1.125.957 2.82 1.098 5.937.156 3.375.187 4.387.187 12.926 0 8.54-.03 9.555-.187 12.93-.14 3.117-.664 4.808-1.098 5.937a9.887 9.887 0 0 1-2.398 3.676c-1.117 1.121-2.184 1.813-3.68 2.395-1.117.437-2.816.957-5.937 1.101-3.375.153-4.387.188-12.93.188s-9.559-.035-12.934-.188c-3.117-.144-4.808-.664-5.937-1.101a9.94 9.94 0 0 1-3.68-2.395 9.911 9.911 0 0 1-2.402-3.68c-.434-1.125-.957-2.82-1.098-5.94-.152-3.372-.183-4.384-.183-12.93 0-8.544.03-9.551.183-12.926.145-3.118.664-4.817 1.102-5.942.582-1.492 1.277-2.562 2.398-3.68 1.117-1.12 2.184-1.812 3.68-2.394 1.129-.438 2.82-.957 5.937-1.102 2.953-.136 4.098-.175 10.063-.18Zm19.953 5.308a3.846 3.846 0 0 0-3.844 3.844 3.845 3.845 0 0 0 3.844 3.84 3.844 3.844 0 0 0 3.84-3.84 3.845 3.845 0 0 0-3.84-3.844Zm-17.082 4.488a16.438 16.438 0 1 0 0 32.871c8.976-.14 16.18-7.457 16.18-16.433 0-8.98-7.204-16.297-16.18-16.438Zm0 5.766c5.89 0 10.668 4.777 10.668 10.668 0 5.89-4.777 10.668-10.668 10.668-5.89 0-10.668-4.777-10.668-10.668 0-5.89 4.777-10.668 10.668-10.668Zm0 0"/>
</svg>
