<svg xmlns="http://www.w3.org/2000/svg" width="64" height="64">
    <path style="stroke:none;fill-rule:nonzero;fill:#000;fill-opacity:1" d="M42.238 5.441a22.395 22.395 0 0 1 2.508-.054c1.461.027 2.031.09 2.934.3a15.018 15.018 0 0 1 4.668 1.954L52.91 8h5.387c2.96 0 5.383.012 5.383.027 0 .016-.797 2.407-1.77 5.305l-1.773 5.281-.024 3.465c-.023 3.442-.082 4.203-.492 6.668-1.055 6.324-3.867 12.586-7.96 17.707a47.63 47.63 0 0 1-5.368 5.469 33.472 33.472 0 0 1-19.867 7.687c-6.137.266-11.348-.793-16.324-3.312-3.133-1.586-6.043-3.871-7.747-6.094-.449-.586-.46-.617-.265-.758.113-.078 1.066-.793 2.125-1.59l1.918-1.44.308.394c.622.793 2.395 2.437 3.38 3.136 3.081 2.192 6.906 3.617 11.245 4.2 1.676.222 5.258.253 6.829.054 5.304-.66 10.261-2.656 14.183-5.719 4.23-3.292 7.875-8.007 9.984-12.906 1.004-2.336 1.958-5.52 2.348-7.84.39-2.336.528-5.957.317-8.351l-.094-1.043 1.672-5.008H51.09l-.93-.71c-.996-.759-2.238-1.4-3.281-1.688-.875-.243-3.18-.332-4.145-.164-2.586.457-4.32 1.945-5.504 4.73-.804 1.89-1.164 3.746-1.25 6.484l-.062 1.88-.965.066c-7.023.5-13.883-1.758-21.941-7.227l-.04-.027c-1.613-1.09-1.613-1.09-1.644-.793-.02.164.09.918.242 1.676.52 2.605 1.38 5.207 2.29 6.945l.413.793-.335.203c-.184.117-1.043.629-1.907 1.14-.867.516-1.574.985-1.574 1.047-.008.25 1.012 2.188 1.68 3.192.683 1.027 2.863 3.371 3.75 4.031l.36.27-1.313 1.78-1.317 1.786.262.207c1.945 1.547 4.621 2.723 7.883 3.453.453.102.91.207 1.363.32.043.028-.934 5.09-.992 5.149-.082.082-1.828-.3-3.39-.742-5.477-1.547-9.368-4.254-11.454-7.965-.21-.371-.363-.691-.344-.711.024-.02.735-.355 1.586-.746.848-.387 1.559-.723 1.582-.75.02-.02-.328-.461-.781-.98a23.725 23.725 0 0 1-4.363-7.72c-.512-1.573-.985-3.706-.844-3.827.047-.043.855-.188 1.797-.32a23.903 23.903 0 0 0 1.746-.286c.023-.02-.156-.7-.402-1.504-.97-3.207-1.336-5.488-1.34-8.246 0-3.187.36-4.176 2.12-5.82.59-.551 1.122-1 1.18-1.004.06 0 .684.46 1.387 1.027 7.285 5.836 13.352 9.094 18.742 10.067.989.175 1.344.261 1.5.12.106-.093.122-.288.18-.628a23.79 23.79 0 0 1 1.024-3.77c1.918-5.05 5.37-7.972 10.18-8.629Zm0 0"/>
</svg>
